<?xml version="1.0" encoding="UTF-8"?> <svg xmlns="http://www.w3.org/2000/svg" xmlns:xlink="http://www.w3.org/1999/xlink" width="104pt" height="90pt" viewBox="0 0 104 90"><g id="surface1"><path style=" stroke:none;fill-rule:nonzero;fill:rgb(0%,21.568627%,44.705882%);fill-opacity:1;" d="M 51.4375 3.675781 C 51.730469 3.59375 52.042969 3.527344 52.347656 3.621094 C 59.46875 5.5 66.394531 8.078125 73.164062 10.984375 C 73.8125 11.277344 74.484375 11.519531 75.113281 11.863281 C 74.59375 15.578125 74.035156 19.289062 73.566406 23.011719 C 74.175781 22.722656 74.742188 22.347656 75.335938 22.023438 C 78.398438 20.265625 81.535156 18.632812 84.734375 17.128906 C 85.011719 17.011719 85.332031 16.773438 85.632812 16.976562 C 90.976562 19.671875 96.175781 22.652344 101.320312 25.714844 C 101.871094 26.050781 102.429688 26.367188 102.964844 26.726562 C 101.300781 27.945312 99.613281 29.132812 97.964844 30.378906 C 92.636719 34.378906 87.480469 38.617188 82.5 43.046875 C 82.207031 43.355469 81.777344 43.09375 81.429688 43.046875 C 72.640625 41.003906 63.78125 39.277344 54.875 37.847656 C 53.980469 37.730469 53.097656 37.539062 52.199219 37.46875 C 52.523438 37.789062 52.902344 38.042969 53.269531 38.304688 C 59.359375 42.785156 65.351562 47.398438 71.199219 52.195312 C 71.375 52.347656 71.550781 52.5 71.726562 52.652344 C 71.042969 53.382812 70.269531 54.03125 69.566406 54.746094 C 63.859375 60.234375 58.140625 65.714844 52.4375 71.207031 C 52.308594 71.320312 52.179688 71.429688 52.046875 71.542969 C 51.570312 71.171875 51.171875 70.71875 50.738281 70.300781 C 40.835938 60.675781 30.839844 51.136719 20.457031 42.035156 C 20.628906 41.613281 20.832031 41.203125 21.046875 40.796875 C 23.765625 35.414062 26.523438 30.042969 29.535156 24.816406 C 29.839844 24.273438 30.203125 23.761719 30.460938 23.191406 C 29.957031 23.414062 29.488281 23.714844 29.011719 23.988281 C 23.453125 27.21875 18.003906 30.632812 12.640625 34.183594 C 12.351562 34.367188 12.085938 34.609375 11.75 34.703125 C 11.429688 34.515625 11.164062 34.25 10.875 34.023438 C 8.003906 31.703125 5.035156 29.515625 2.003906 27.417969 C 1.707031 27.214844 1.410156 27.003906 1.125 26.785156 C 1.734375 26.332031 2.417969 25.996094 3.0625 25.589844 C 11.644531 20.484375 20.433594 15.710938 29.523438 11.59375 C 29.90625 11.417969 30.292969 11.207031 30.726562 11.210938 C 37.097656 11.214844 43.472656 11.464844 49.824219 11.9375 C 50.464844 11.972656 51.101562 12.070312 51.742188 12.039062 C 51.558594 11.929688 51.375 11.824219 51.179688 11.738281 C 47.414062 10.183594 43.589844 8.773438 39.734375 7.476562 C 40.320312 7.199219 40.945312 7.03125 41.550781 6.816406 C 44.824219 5.695312 48.101562 4.585938 51.4375 3.675781 M 51.789062 12.238281 C 46.332031 14.671875 40.984375 17.347656 35.730469 20.203125 C 34.027344 21.148438 32.304688 22.066406 30.632812 23.070312 C 31.050781 23.347656 31.480469 23.597656 31.910156 23.851562 C 35.546875 26.046875 39.101562 28.371094 42.613281 30.757812 C 45.800781 32.917969 48.925781 35.171875 52.0625 37.40625 C 52.578125 37.074219 53.058594 36.695312 53.558594 36.34375 C 59.644531 31.949219 65.835938 27.6875 72.265625 23.816406 C 72.679688 23.574219 73.105469 23.347656 73.484375 23.050781 C 66.722656 18.914062 59.640625 15.308594 52.347656 12.226562 C 52.167969 12.140625 51.964844 12.144531 51.789062 12.238281 Z M 51.789062 12.238281 "></path><path style=" stroke:none;fill-rule:nonzero;fill:rgb(0%,21.568627%,44.705882%);fill-opacity:1;" d="M 49.875 16.101562 C 52.28125 15.878906 54.738281 16.03125 57.082031 16.652344 C 58.585938 17.046875 60.042969 17.648438 61.34375 18.515625 C 62.257812 19.132812 63.097656 19.90625 63.664062 20.867188 C 64.246094 21.855469 64.507812 23.078125 64.21875 24.207031 C 63.898438 25.542969 62.984375 26.644531 61.933594 27.476562 C 60.328125 28.730469 58.390625 29.488281 56.421875 29.933594 C 53.183594 30.652344 49.765625 30.578125 46.5625 29.703125 C 44.621094 29.160156 42.722656 28.269531 41.246094 26.855469 C 40.261719 25.863281 39.503906 24.523438 39.566406 23.082031 C 39.601562 21.546875 40.511719 20.1875 41.632812 19.21875 C 43.933594 17.277344 46.9375 16.417969 49.875 16.101562 Z M 49.875 16.101562 "></path><path style=" stroke:none;fill-rule:nonzero;fill:rgb(0%,21.568627%,44.705882%);fill-opacity:1;" d="M 1 76.390625 C 2.28125 76.324219 3.566406 76.382812 4.847656 76.363281 C 5.78125 76.347656 6.753906 76.339844 7.628906 76.722656 C 8.390625 77.042969 9.039062 77.683594 9.269531 78.496094 C 9.597656 79.589844 9.460938 80.886719 8.714844 81.78125 C 8.320312 82.261719 7.734375 82.503906 7.175781 82.734375 C 7.480469 82.902344 7.824219 83.054688 8.03125 83.355469 C 8.328125 83.785156 8.496094 84.289062 8.65625 84.78125 C 9.089844 86.191406 9.539062 87.59375 9.976562 89.003906 C 8.945312 89.015625 7.917969 89.007812 6.890625 89.007812 C 6.523438 87.859375 6.226562 86.691406 5.882812 85.539062 C 5.726562 85.050781 5.589844 84.515625 5.199219 84.160156 C 4.859375 83.867188 4.386719 83.90625 3.96875 83.90625 C 3.945312 85.605469 3.972656 87.304688 3.960938 89.007812 C 2.972656 89.007812 1.984375 89.015625 1 89 C 1.003906 84.796875 1 80.59375 1 76.390625 M 3.859375 78.523438 C 3.839844 79.605469 3.832031 80.6875 3.863281 81.765625 C 4.511719 81.757812 5.222656 81.835938 5.796875 81.46875 C 6.59375 80.9375 6.71875 79.664062 6.09375 78.960938 C 5.5 78.390625 4.609375 78.496094 3.859375 78.523438 Z M 3.859375 78.523438 "></path><path style=" stroke:none;fill-rule:nonzero;fill:rgb(0%,21.568627%,44.705882%);fill-opacity:1;" d="M 33.074219 76.378906 C 33.949219 76.347656 34.824219 76.351562 35.699219 76.378906 C 35.71875 77.160156 35.738281 77.941406 35.6875 78.71875 C 34.816406 78.71875 33.949219 78.71875 33.078125 78.71875 C 33.0625 77.941406 33.066406 77.160156 33.074219 76.378906 Z M 33.074219 76.378906 "></path><path style=" stroke:none;fill-rule:nonzero;fill:rgb(0%,21.568627%,44.705882%);fill-opacity:1;" d="M 54.261719 76.378906 C 56.574219 76.351562 58.886719 76.351562 61.195312 76.378906 C 61.222656 77.105469 61.222656 77.832031 61.191406 78.558594 C 59.828125 78.59375 58.464844 78.554688 57.097656 78.574219 C 57.070312 79.546875 57.078125 80.519531 57.09375 81.492188 C 58.410156 81.523438 59.726562 81.484375 61.042969 81.511719 C 61.042969 82.246094 61.042969 82.980469 61.042969 83.71875 C 59.726562 83.742188 58.410156 83.703125 57.09375 83.734375 C 57.070312 85.492188 57.097656 87.25 57.082031 89.007812 C 56.144531 89.011719 55.203125 89.011719 54.265625 89.003906 C 54.226562 87.480469 54.261719 85.949219 54.25 84.425781 C 54.257812 81.742188 54.226562 79.058594 54.261719 76.378906 Z M 54.261719 76.378906 "></path><path style=" stroke:none;fill-rule:nonzero;fill:rgb(0%,21.568627%,44.705882%);fill-opacity:1;" d="M 74.855469 76.378906 C 75.730469 76.347656 76.605469 76.351562 77.480469 76.378906 C 77.515625 79.253906 77.484375 82.132812 77.496094 85.011719 C 77.507812 86.339844 77.464844 87.671875 77.535156 89.003906 C 76.703125 89.011719 75.871094 89.015625 75.039062 89 C 74.996094 88.578125 74.960938 88.15625 74.929688 87.738281 C 74.652344 88.105469 74.390625 88.503906 74 88.757812 C 73.402344 89.148438 72.648438 89.210938 71.960938 89.078125 C 71.140625 88.90625 70.496094 88.257812 70.128906 87.519531 C 69.640625 86.535156 69.496094 85.414062 69.515625 84.328125 C 69.507812 83.203125 69.707031 82.019531 70.386719 81.101562 C 71.136719 80.078125 72.632812 79.820312 73.75 80.332031 C 74.226562 80.546875 74.535156 80.988281 74.839844 81.398438 C 74.875 79.726562 74.839844 78.050781 74.855469 76.378906 M 73.039062 82.011719 C 72.601562 82.222656 72.425781 82.722656 72.34375 83.171875 C 72.238281 83.84375 72.265625 84.527344 72.277344 85.203125 C 72.300781 85.75 72.378906 86.324219 72.691406 86.789062 C 72.984375 87.246094 73.691406 87.359375 74.109375 87.007812 C 74.410156 86.761719 74.578125 86.390625 74.675781 86.015625 C 74.890625 85.148438 74.886719 84.238281 74.742188 83.359375 C 74.675781 82.960938 74.554688 82.554688 74.289062 82.242188 C 73.984375 81.886719 73.449219 81.847656 73.039062 82.011719 Z M 73.039062 82.011719 "></path><path style=" stroke:none;fill-rule:nonzero;fill:rgb(0%,21.568627%,44.705882%);fill-opacity:1;" d="M 100.140625 76.378906 C 101.011719 76.351562 101.886719 76.351562 102.761719 76.378906 C 102.796875 78.734375 102.765625 81.089844 102.777344 83.445312 C 102.765625 85.296875 102.796875 87.152344 102.761719 89.003906 C 101.886719 89.011719 101.011719 89.011719 100.136719 89.003906 C 100.105469 86.175781 100.132812 83.34375 100.125 80.511719 C 100.136719 79.132812 100.105469 77.757812 100.140625 76.378906 Z M 100.140625 76.378906 "></path><path style=" stroke:none;fill-rule:nonzero;fill:rgb(0%,21.568627%,44.705882%);fill-opacity:1;" d="M 37.640625 78.398438 C 38.496094 78.136719 39.347656 77.855469 40.199219 77.589844 C 40.210938 78.46875 40.179688 79.347656 40.210938 80.222656 C 40.773438 80.234375 41.335938 80.230469 41.898438 80.230469 C 41.933594 80.847656 41.929688 81.464844 41.902344 82.078125 C 41.339844 82.097656 40.777344 82.09375 40.214844 82.09375 C 40.175781 83.359375 40.210938 84.625 40.195312 85.890625 C 40.210938 86.308594 40.199219 86.839844 40.59375 87.09375 C 41.015625 87.328125 41.515625 87.148438 41.960938 87.074219 C 41.96875 87.722656 41.964844 88.375 41.960938 89.023438 C 41.261719 89.164062 40.546875 89.152344 39.835938 89.128906 C 39.1875 89.101562 38.519531 88.855469 38.097656 88.34375 C 37.699219 87.851562 37.570312 87.199219 37.550781 86.582031 C 37.527344 85.085938 37.578125 83.589844 37.53125 82.097656 C 36.921875 82.085938 36.316406 82.085938 35.710938 82.101562 C 35.707031 84.402344 35.734375 86.707031 35.695312 89.003906 C 34.820312 89.011719 33.949219 89.011719 33.074219 89.007812 C 33.070312 86.082031 33.070312 83.15625 33.074219 80.234375 C 34.589844 80.21875 36.105469 80.246094 37.621094 80.222656 C 37.632812 79.613281 37.617188 79.007812 37.640625 78.398438 Z M 37.640625 78.398438 "></path><path style=" stroke:none;fill-rule:nonzero;fill:rgb(0%,21.568627%,44.705882%);fill-opacity:1;" d="M 11.953125 80.535156 C 12.808594 80.050781 13.847656 79.988281 14.796875 80.175781 C 15.636719 80.339844 16.414062 80.855469 16.847656 81.609375 C 17.515625 82.710938 17.574219 84.050781 17.527344 85.308594 C 15.820312 85.347656 14.113281 85.292969 12.40625 85.332031 C 12.4375 85.90625 12.632812 86.5 13.105469 86.855469 C 13.6875 87.347656 14.496094 87.332031 15.214844 87.304688 C 15.832031 87.296875 16.441406 87.175781 17.027344 87 C 17.039062 87.671875 17.070312 88.34375 17.0625 89.019531 C 16.355469 89.136719 15.640625 89.136719 14.925781 89.15625 C 13.910156 89.15625 12.84375 89.121094 11.921875 88.628906 C 10.984375 88.148438 10.332031 87.207031 10.085938 86.1875 C 9.789062 84.972656 9.824219 83.648438 10.300781 82.484375 C 10.625 81.679688 11.191406 80.957031 11.953125 80.535156 M 12.847656 82.128906 C 12.460938 82.605469 12.433594 83.257812 12.414062 83.847656 C 13.324219 83.886719 14.234375 83.875 15.144531 83.855469 C 15.117188 83.261719 15.078125 82.609375 14.683594 82.128906 C 14.246094 81.5625 13.285156 81.5625 12.847656 82.128906 Z M 12.847656 82.128906 "></path><path style=" stroke:none;fill-rule:nonzero;fill:rgb(0%,21.568627%,44.705882%);fill-opacity:1;" d="M 19.453125 81.164062 C 20.183594 80.453125 21.203125 80.121094 22.203125 80.085938 C 22.976562 80.0625 23.746094 80.132812 24.515625 80.222656 C 24.523438 80.894531 24.476562 81.570312 24.398438 82.238281 C 23.640625 82.175781 22.847656 82.023438 22.109375 82.28125 C 21.363281 82.5625 20.980469 83.378906 20.910156 84.136719 C 20.804688 85.039062 20.90625 86.117188 21.675781 86.714844 C 22.488281 87.355469 23.589844 87.140625 24.539062 87.058594 C 24.609375 87.710938 24.609375 88.367188 24.605469 89.023438 C 23.683594 89.214844 22.738281 89.171875 21.808594 89.125 C 20.949219 89.078125 20.089844 88.769531 19.460938 88.164062 C 18.5 87.273438 18.109375 85.90625 18.128906 84.621094 C 18.113281 83.359375 18.523438 82.039062 19.453125 81.164062 Z M 19.453125 81.164062 "></path><path style=" stroke:none;fill-rule:nonzero;fill:rgb(0%,21.568627%,44.705882%);fill-opacity:1;" d="M 25.5 81.6875 C 26.054688 80.824219 27.003906 80.234375 28.015625 80.117188 C 28.726562 80.03125 29.460938 80.085938 30.132812 80.339844 C 30.878906 80.621094 31.484375 81.226562 31.816406 81.953125 C 32.296875 82.996094 32.367188 84.175781 32.304688 85.308594 C 30.605469 85.34375 28.902344 85.304688 27.203125 85.324219 C 27.210938 85.800781 27.339844 86.28125 27.65625 86.644531 C 27.992188 87.027344 28.484375 87.246094 28.984375 87.289062 C 29.929688 87.363281 30.890625 87.289062 31.796875 87.003906 C 31.832031 87.675781 31.859375 88.351562 31.828125 89.023438 C 30.789062 89.167969 29.738281 89.171875 28.691406 89.132812 C 27.695312 89.097656 26.675781 88.777344 25.9375 88.082031 C 25.222656 87.414062 24.855469 86.449219 24.738281 85.492188 C 24.566406 84.191406 24.757812 82.792969 25.5 81.6875 M 27.566406 82.210938 C 27.238281 82.691406 27.199219 83.292969 27.203125 83.859375 C 28.101562 83.878906 29 83.878906 29.898438 83.855469 C 29.90625 83.269531 29.851562 82.640625 29.496094 82.152344 C 29.042969 81.542969 27.972656 81.558594 27.566406 82.210938 Z M 27.566406 82.210938 "></path><path style=" stroke:none;fill-rule:nonzero;fill:rgb(0%,21.568627%,44.705882%);fill-opacity:1;" d="M 43.332031 80.238281 C 44.703125 80.164062 46.09375 79.960938 47.460938 80.1875 C 48.1875 80.316406 48.949219 80.621094 49.371094 81.261719 C 49.746094 81.816406 49.839844 82.5 49.859375 83.15625 C 49.894531 85.105469 49.820312 87.054688 49.90625 89.003906 C 49.113281 89.011719 48.316406 89.015625 47.523438 89.003906 C 47.488281 88.675781 47.449219 88.347656 47.40625 88.023438 C 47.097656 88.304688 46.800781 88.613281 46.429688 88.808594 C 45.742188 89.164062 44.921875 89.222656 44.179688 89.042969 C 43.316406 88.832031 42.601562 88.101562 42.414062 87.226562 C 42.230469 86.390625 42.332031 85.433594 42.886719 84.757812 C 43.398438 84.140625 44.171875 83.824219 44.9375 83.671875 C 45.757812 83.492188 46.601562 83.53125 47.4375 83.523438 C 47.4375 83.097656 47.382812 82.632812 47.066406 82.320312 C 46.660156 81.878906 46.011719 81.917969 45.46875 81.9375 C 44.726562 81.953125 44.011719 82.171875 43.324219 82.445312 C 43.308594 81.710938 43.304688 80.972656 43.332031 80.238281 M 45.285156 85.21875 C 44.695312 85.609375 44.574219 86.511719 44.96875 87.082031 C 45.519531 87.714844 46.644531 87.507812 47.070312 86.828125 C 47.472656 86.230469 47.460938 85.476562 47.425781 84.789062 C 46.699219 84.777344 45.910156 84.796875 45.285156 85.21875 Z M 45.285156 85.21875 "></path><path style=" stroke:none;fill-rule:nonzero;fill:rgb(0%,21.568627%,44.705882%);fill-opacity:1;" d="M 62.179688 81.628906 C 62.757812 80.769531 63.730469 80.199219 64.753906 80.105469 C 65.550781 80.03125 66.394531 80.113281 67.109375 80.496094 C 67.730469 80.820312 68.210938 81.378906 68.488281 82.019531 C 68.945312 83.046875 69.007812 84.199219 68.949219 85.308594 C 67.238281 85.34375 65.523438 85.308594 63.8125 85.320312 C 63.882812 85.8125 63.988281 86.332031 64.347656 86.695312 C 64.683594 87.046875 65.152344 87.246094 65.628906 87.289062 C 66.574219 87.363281 67.535156 87.289062 68.445312 87.003906 C 68.472656 87.675781 68.5 88.351562 68.472656 89.023438 C 67.402344 89.167969 66.316406 89.175781 65.238281 89.125 C 64.207031 89.074219 63.15625 88.707031 62.441406 87.9375 C 61.792969 87.253906 61.46875 86.320312 61.371094 85.394531 C 61.214844 84.101562 61.425781 82.714844 62.179688 81.628906 M 64.25 82.152344 C 63.886719 82.640625 63.835938 83.269531 63.847656 83.859375 C 64.746094 83.878906 65.644531 83.878906 66.542969 83.855469 C 66.550781 83.269531 66.496094 82.640625 66.136719 82.152344 C 65.703125 81.558594 64.683594 81.550781 64.25 82.152344 Z M 64.25 82.152344 "></path><path style=" stroke:none;fill-rule:nonzero;fill:rgb(0%,21.568627%,44.705882%);fill-opacity:1;" d="M 79.191406 81.382812 C 79.746094 80.703125 80.558594 80.230469 81.433594 80.125 C 82.375 80 83.394531 80.113281 84.195312 80.660156 C 84.914062 81.148438 85.371094 81.949219 85.574219 82.789062 C 85.792969 83.605469 85.800781 84.464844 85.777344 85.308594 C 84.066406 85.34375 82.355469 85.304688 80.644531 85.328125 C 80.679688 85.902344 80.875 86.5 81.347656 86.859375 C 81.933594 87.355469 82.742188 87.328125 83.464844 87.304688 C 84.078125 87.296875 84.6875 87.175781 85.277344 87 C 85.285156 87.671875 85.304688 88.347656 85.300781 89.019531 C 84.242188 89.171875 83.167969 89.175781 82.105469 89.125 C 81.097656 89.074219 80.054688 88.75 79.328125 88.011719 C 78.476562 87.15625 78.140625 85.902344 78.144531 84.71875 C 78.117188 83.535156 78.429688 82.304688 79.191406 81.382812 M 81.097656 82.128906 C 80.710938 82.609375 80.675781 83.261719 80.640625 83.855469 C 81.554688 83.878906 82.472656 83.882812 83.386719 83.851562 C 83.34375 83.261719 83.316406 82.609375 82.929688 82.128906 C 82.496094 81.566406 81.527344 81.550781 81.097656 82.128906 Z M 81.097656 82.128906 "></path><path style=" stroke:none;fill-rule:nonzero;fill:rgb(0%,21.568627%,44.705882%);fill-opacity:1;" d="M 92.402344 80.238281 C 93.363281 80.171875 94.328125 80.089844 95.292969 80.078125 C 96.269531 80.105469 97.351562 80.207031 98.117188 80.890625 C 98.773438 81.472656 98.925781 82.402344 98.941406 83.242188 C 98.964844 85.164062 98.917969 87.085938 98.972656 89.007812 C 98.179688 89.007812 97.382812 89.015625 96.589844 89 C 96.5625 88.644531 96.527344 88.292969 96.492188 87.9375 C 96.121094 88.410156 95.652344 88.820312 95.066406 88.988281 C 94.105469 89.289062 92.933594 89.171875 92.179688 88.449219 C 91.480469 87.796875 91.296875 86.742188 91.46875 85.832031 C 91.601562 85.097656 92.089844 84.453125 92.75 84.117188 C 93.894531 83.488281 95.234375 83.519531 96.5 83.523438 C 96.515625 83.050781 96.414062 82.53125 96.03125 82.21875 C 95.609375 81.875 95.027344 81.921875 94.523438 81.9375 C 93.785156 81.960938 93.074219 82.171875 92.398438 82.445312 C 92.402344 81.710938 92.394531 80.972656 92.402344 80.238281 M 94.457031 85.144531 C 93.78125 85.511719 93.609375 86.527344 94.074219 87.121094 C 94.644531 87.695312 95.710938 87.496094 96.136719 86.835938 C 96.539062 86.242188 96.535156 85.496094 96.523438 84.804688 C 95.824219 84.753906 95.085938 84.804688 94.457031 85.144531 Z M 94.457031 85.144531 "></path><path style=" stroke:none;fill-rule:nonzero;fill:rgb(0%,21.568627%,44.705882%);fill-opacity:1;" d="M 86.386719 80.234375 C 87.183594 80.226562 87.980469 80.230469 88.777344 80.230469 C 88.796875 80.703125 88.828125 81.171875 88.902344 81.636719 C 89.238281 81.25 89.476562 80.75 89.945312 80.5 C 90.476562 80.195312 91.105469 80.222656 91.691406 80.230469 C 91.695312 80.96875 91.695312 81.710938 91.691406 82.453125 C 91.050781 82.476562 90.316406 82.332031 89.777344 82.765625 C 89.203125 83.226562 89.128906 84.027344 89.089844 84.710938 C 89.054688 86.144531 89.089844 87.574219 89.074219 89.007812 C 88.199219 89.011719 87.324219 89.011719 86.449219 89.007812 C 86.382812 86.082031 86.5 83.15625 86.386719 80.234375 Z M 86.386719 80.234375 "></path></g></svg> 